<?xml version="1.0" encoding="UTF-8" standalone="no"?>
<!DOCTYPE svg PUBLIC "-//W3C//DTD SVG 1.1//EN"
 "http://www.w3.org/Graphics/SVG/1.1/DTD/svg11.dtd">
<!-- Generated by graphviz version 2.40.1 (20161225.0304)
 -->
<!-- Title: %0 Pages: 1 -->
<svg width="308pt" height="310pt"
 viewBox="0.00 0.00 308.00 310.00" xmlns="http://www.w3.org/2000/svg" xmlns:xlink="http://www.w3.org/1999/xlink">
<g id="graph0" class="graph" transform="scale(1 1) rotate(0) translate(4 306)">
<title>%0</title>
<g id="a_graph0"><a xlink:title="Data Model">
</a>
</g>
<!-- mrs_age -->
<g id="mrs_age" class="node">
<title>mrs_age</title>
<polygon fill="#00008b" stroke="transparent" points="4.5,-121 4.5,-141 192.5,-141 192.5,-121 4.5,-121"/>
<text text-anchor="start" x="74.7875" y="-126.4" font-family="Times,serif" font-size="14.00" fill="#ffffff">mrs_age</text>
<polygon fill="#cccce7" stroke="transparent" points="4.5,-101 4.5,-121 192.5,-121 192.5,-101 4.5,-101"/>
<text text-anchor="start" x="6.5" y="-106.4" font-family="Times,serif" font-size="14.00" fill="#444444">when_key</text>
<polygon fill="#cccce7" stroke="transparent" points="4.5,-81 4.5,-101 192.5,-101 192.5,-81 4.5,-81"/>
<text text-anchor="start" x="6.5" y="-86.4" font-family="Times,serif" font-size="14.00" fill="#444444">where_key</text>
<polygon fill="#cccce7" stroke="transparent" points="4.5,-61 4.5,-81 192.5,-81 192.5,-61 4.5,-61"/>
<text text-anchor="start" x="6.5" y="-66.4" font-family="Times,serif" font-size="14.00" fill="#444444">who_key</text>
<polygon fill="#cccce7" stroke="transparent" points="4.5,-41 4.5,-61 192.5,-61 192.5,-41 4.5,-41"/>
<text text-anchor="start" x="6.5" y="-46.4" font-family="Times,serif" font-size="14.00" fill="#444444">all_deaths</text>
<polygon fill="#cccce7" stroke="transparent" points="4.5,-21 4.5,-41 192.5,-41 192.5,-21 4.5,-21"/>
<text text-anchor="start" x="6.5" y="-26.4" font-family="Times,serif" font-size="14.00" fill="#444444">nrow_agg</text>
<polygon fill="#cccce7" stroke="transparent" points="4.5,-1 4.5,-21 192.5,-21 192.5,-1 4.5,-1"/>
<text text-anchor="start" x="6.366" y="-7.4" font-family="Times,serif" text-decoration="underline" font-size="14.00" fill="#444444">when_key, where_key, who_key</text>
<polygon fill="none" stroke="#00005c" stroke-opacity="0.666667" points="3.5,0 3.5,-142 193.5,-142 193.5,0 3.5,0"/>
</g>
<!-- when -->
<g id="when" class="node">
<title>when</title>
<polygon fill="#006400" stroke="transparent" points="236.5,-281 236.5,-301 297.5,-301 297.5,-281 236.5,-281"/>
<text text-anchor="start" x="251.8394" y="-286.4" font-family="Times,serif" font-size="14.00" fill="#ffffff">when</text>
<polygon fill="#cce0cc" stroke="transparent" points="236.5,-261 236.5,-281 297.5,-281 297.5,-261 236.5,-261"/>
<text text-anchor="start" x="238.2321" y="-267.4" font-family="Times,serif" text-decoration="underline" font-size="14.00" fill="#444444">when_key</text>
<polygon fill="#cce0cc" stroke="transparent" points="236.5,-241 236.5,-261 297.5,-261 297.5,-241 236.5,-241"/>
<text text-anchor="start" x="238.5" y="-246.4" font-family="Times,serif" font-size="14.00" fill="#444444">year</text>
<polygon fill="none" stroke="#004200" stroke-opacity="0.666667" points="235,-240 235,-302 298,-302 298,-240 235,-240"/>
</g>
<!-- mrs_age&#45;&gt;when -->
<g id="mrs_age_1" class="edge">
<title>mrs_age:when_key&#45;&gt;when:when_key</title>
<path fill="none" stroke="#555555" d="M192.5,-111C262.3618,-111 173.1723,-254.5699 226.2591,-269.7121"/>
<polygon fill="#555555" stroke="#555555" points="226.1414,-273.2248 236.5,-271 227.0149,-266.2795 226.1414,-273.2248"/>
</g>
<!-- where -->
<g id="where" class="node">
<title>where</title>
<polygon fill="#006400" stroke="transparent" points="234.5,-201 234.5,-221 299.5,-221 299.5,-201 234.5,-201"/>
<text text-anchor="start" x="249.9018" y="-206.4" font-family="Times,serif" font-size="14.00" fill="#ffffff">where</text>
<polygon fill="#cce0cc" stroke="transparent" points="234.5,-181 234.5,-201 299.5,-201 299.5,-181 234.5,-181"/>
<text text-anchor="start" x="236.2945" y="-187.4" font-family="Times,serif" text-decoration="underline" font-size="14.00" fill="#444444">where_key</text>
<polygon fill="#cce0cc" stroke="transparent" points="234.5,-161 234.5,-181 299.5,-181 299.5,-161 234.5,-161"/>
<text text-anchor="start" x="236.5" y="-166.4" font-family="Times,serif" font-size="14.00" fill="#444444">region</text>
<polygon fill="#cce0cc" stroke="transparent" points="234.5,-141 234.5,-161 299.5,-161 299.5,-141 234.5,-141"/>
<text text-anchor="start" x="236.5" y="-146.4" font-family="Times,serif" font-size="14.00" fill="#444444">state</text>
<polygon fill="#cce0cc" stroke="transparent" points="234.5,-121 234.5,-141 299.5,-141 299.5,-121 234.5,-121"/>
<text text-anchor="start" x="236.5" y="-126.4" font-family="Times,serif" font-size="14.00" fill="#444444">city</text>
<polygon fill="none" stroke="#004200" stroke-opacity="0.666667" points="233,-120 233,-222 300,-222 300,-120 233,-120"/>
</g>
<!-- mrs_age&#45;&gt;where -->
<g id="mrs_age_2" class="edge">
<title>mrs_age:where_key&#45;&gt;where:where_key</title>
<path fill="none" stroke="#555555" d="M192.5,-91C236.751,-91 194.5309,-175.2667 224.5952,-189.0917"/>
<polygon fill="#555555" stroke="#555555" points="224.0184,-192.5448 234.5,-191 225.3428,-185.6712 224.0184,-192.5448"/>
</g>
<!-- who -->
<g id="who" class="node">
<title>who</title>
<polygon fill="#006400" stroke="transparent" points="239.5,-81 239.5,-101 294.5,-101 294.5,-81 239.5,-81"/>
<text text-anchor="start" x="254.9467" y="-86.4" font-family="Times,serif" font-size="14.00" fill="#ffffff">who</text>
<polygon fill="#cce0cc" stroke="transparent" points="239.5,-61 239.5,-81 294.5,-81 294.5,-61 239.5,-61"/>
<text text-anchor="start" x="241.3394" y="-67.4" font-family="Times,serif" text-decoration="underline" font-size="14.00" fill="#444444">who_key</text>
<polygon fill="#cce0cc" stroke="transparent" points="239.5,-41 239.5,-61 294.5,-61 294.5,-41 239.5,-41"/>
<text text-anchor="start" x="241.5" y="-46.4" font-family="Times,serif" font-size="14.00" fill="#444444">age</text>
<polygon fill="none" stroke="#004200" stroke-opacity="0.666667" points="238,-40 238,-102 295,-102 295,-40 238,-40"/>
</g>
<!-- mrs_age&#45;&gt;who -->
<g id="mrs_age_3" class="edge">
<title>mrs_age:who_key&#45;&gt;who:who_key</title>
<path fill="none" stroke="#555555" d="M192.5,-71C209.4722,-71 216.102,-71 229.1958,-71"/>
<polygon fill="#555555" stroke="#555555" points="229.5,-74.5001 239.5,-71 229.5,-67.5001 229.5,-74.5001"/>
</g>
<!-- mrs_cause -->
<g id="mrs_cause" class="node">
<title>mrs_cause</title>
<polygon fill="#00008b" stroke="transparent" points="1.5,-281 1.5,-301 196.5,-301 196.5,-281 1.5,-281"/>
<text text-anchor="start" x="69.4579" y="-286.4" font-family="Times,serif" font-size="14.00" fill="#ffffff">mrs_cause</text>
<polygon fill="#cccce7" stroke="transparent" points="1.5,-261 1.5,-281 196.5,-281 196.5,-261 1.5,-261"/>
<text text-anchor="start" x="3.5" y="-266.4" font-family="Times,serif" font-size="14.00" fill="#444444">when_key</text>
<polygon fill="#cccce7" stroke="transparent" points="1.5,-241 1.5,-261 196.5,-261 196.5,-241 1.5,-241"/>
<text text-anchor="start" x="3.5" y="-246.4" font-family="Times,serif" font-size="14.00" fill="#444444">where_key</text>
<polygon fill="#cccce7" stroke="transparent" points="1.5,-221 1.5,-241 196.5,-241 196.5,-221 1.5,-221"/>
<text text-anchor="start" x="3.3625" y="-226.4" font-family="Times,serif" font-size="14.00" fill="#444444">pneumonia_and_influenza_deaths</text>
<polygon fill="#cccce7" stroke="transparent" points="1.5,-201 1.5,-221 196.5,-221 196.5,-201 1.5,-201"/>
<text text-anchor="start" x="3.5" y="-206.4" font-family="Times,serif" font-size="14.00" fill="#444444">all_deaths</text>
<polygon fill="#cccce7" stroke="transparent" points="1.5,-181 1.5,-201 196.5,-201 196.5,-181 1.5,-181"/>
<text text-anchor="start" x="3.5" y="-186.4" font-family="Times,serif" font-size="14.00" fill="#444444">nrow_agg</text>
<polygon fill="#cccce7" stroke="transparent" points="1.5,-161 1.5,-181 196.5,-181 196.5,-161 1.5,-161"/>
<text text-anchor="start" x="3.5" y="-167.4" font-family="Times,serif" text-decoration="underline" font-size="14.00" fill="#444444">when_key, where_key</text>
<polygon fill="none" stroke="#00005c" stroke-opacity="0.666667" points="0,-160 0,-302 197,-302 197,-160 0,-160"/>
</g>
<!-- mrs_cause&#45;&gt;when -->
<g id="mrs_cause_1" class="edge">
<title>mrs_cause:when_key&#45;&gt;when:when_key</title>
<path fill="none" stroke="#555555" d="M196.5,-271C210.3889,-271 216.1398,-271 226.4683,-271"/>
<polygon fill="#555555" stroke="#555555" points="226.5,-274.5001 236.5,-271 226.5,-267.5001 226.5,-274.5001"/>
</g>
<!-- mrs_cause&#45;&gt;where -->
<g id="mrs_cause_2" class="edge">
<title>mrs_cause:where_key&#45;&gt;where:where_key</title>
<path fill="none" stroke="#555555" d="M196.5,-251C223.8727,-251 208.6101,-205.8792 224.6579,-193.8939"/>
<polygon fill="#555555" stroke="#555555" points="225.8935,-197.1789 234.5,-191 223.9188,-190.4631 225.8935,-197.1789"/>
</g>
</g>
</svg>

